<svg id="Layer_1" data-name="Layer 1" xmlns="http://www.w3.org/2000/svg" viewBox="0 0 202.85 213.28"><defs><style>.cls-1{fill:#068bb8;stroke:#068bb8;stroke-miterlimit:10;stroke-width:2px;}</style></defs><path class="cls-1" d="M189.68,108.71c0,49.81-40.79,90.61-90.65,90.42a90.46,90.46,0,1,1,90.65-90.42Zm-27.31,44.45c20-26.37,21.45-71.76-10.83-101.63-32.43-30-83.63-26.55-112,7.81C25.18,76.66,19.59,96.73,22.37,119A74.85,74.85,0,0,0,36,153.4c5-20.18,16.44-34.88,34.5-44.44a38.79,38.79,0,0,1,52.15-57,37.61,37.61,0,0,1,14.51,23c2.6,12.82-.78,24.12-9.24,34C146.07,118.59,157.5,133.3,162.37,153.16Zm-60.5,33.17c3-.44,8.8-.94,14.4-2.13a75.31,75.31,0,0,0,33.53-16.85,2.56,2.56,0,0,0,1.08-2.48c-.24-1.92-.27-3.87-.62-5.77q-5.4-29.65-33.45-40.75a3.41,3.41,0,0,0-2.27.08,38.38,38.38,0,0,1-30.75,0,3.28,3.28,0,0,0-2.12-.08C62.38,124.83,47.93,144.6,47.57,165a3.17,3.17,0,0,0,.9,2.18C63,179.71,80,185.92,101.87,186.33ZM73.36,82.82A25.85,25.85,0,1,0,99.29,57,26.08,26.08,0,0,0,73.36,82.82Z"/></svg>