<svg viewBox="0 0 33 33" fill="none" xmlns="http://www.w3.org/2000/svg">
<path id="Vector" d="M25.6168 9.84462C25.7072 9.92898 25.7608 10.0454 25.7661 10.169C25.7715 10.2925 25.7282 10.4131 25.6455 10.505L19.8326 17.1748L13.7983 24.0906C13.7377 24.1638 13.6562 24.2167 13.5647 24.2424L8.57162 25.6863C8.49571 25.7098 8.41487 25.7124 8.33759 25.6939C8.26032 25.6753 8.18945 25.6363 8.13243 25.5809C8.07541 25.5256 8.03433 25.4558 8.01351 25.3791C7.99269 25.3024 7.9929 25.2214 8.01411 25.1448L9.18653 20.3989C9.20352 20.3212 9.24023 20.2491 9.29311 20.1897L15.3397 13.2533L21.1567 6.58769C21.235 6.49311 21.3477 6.43351 21.4699 6.42197C21.5921 6.41044 21.7139 6.44791 21.8085 6.52616L23.7147 8.20385L25.6168 9.84462Z" fill="#82C5DC"/>
<path id="Vector_2" d="M16.5001 2.55954C19.2567 2.55954 21.9515 3.3775 24.2435 4.90996C26.5356 6.44243 28.3221 8.62058 29.377 11.169C30.4319 13.7174 30.7079 16.5216 30.1701 19.2269C29.6323 21.9323 28.3049 24.4173 26.3556 26.3678C24.4064 28.3183 21.9229 29.6465 19.2192 30.1847C16.5155 30.7228 13.7131 30.4466 11.1663 29.391C8.61945 28.3354 6.44265 26.5479 4.91113 24.2544C3.37962 21.9609 2.56217 19.2645 2.56217 16.5061C2.56217 12.8072 4.03063 9.25988 6.64449 6.6444C9.25835 4.02891 12.8035 2.55954 16.5001 2.55954ZM16.5001 0.0983887C13.2569 0.0983887 10.0866 1.06068 7.39009 2.86359C4.69353 4.66649 2.59182 7.22902 1.35073 10.2271C0.109644 13.2253 -0.215082 16.5243 0.41762 19.7071C1.05032 22.8899 2.61203 25.8134 4.90527 28.1081C7.1985 30.4028 10.1203 31.9654 13.3011 32.5985C16.4819 33.2316 19.7789 32.9067 22.7751 31.6648C25.7714 30.423 28.3323 28.32 30.1341 25.6217C31.9359 22.9235 32.8976 19.7512 32.8976 16.5061C32.8976 12.1545 31.17 7.98114 28.0949 4.9041C25.0197 1.82705 20.849 0.0983887 16.5001 0.0983887Z" fill="#82C5DC"/>
</svg>
