<?xml version="1.0" encoding="utf-8"?>
<svg viewBox="4.1704 -0.0232 22.6589 29.0271" xmlns="http://www.w3.org/2000/svg">
  <path id="Vector" d="M24.4879 12.0186H6.51178C5.21868 12.0186 4.17041 13.0675 4.17041 14.3614V28.6611C4.17041 29.955 5.21868 31.0039 6.51178 31.0039H24.4879C25.781 31.0039 26.8293 29.955 26.8293 28.6611V14.3614C26.8293 13.0675 25.781 12.0186 24.4879 12.0186Z" fill="#82C5DC" transform="matrix(1, 0, 0, 1, 0, -2)"/>
  <path id="Vector_2" d="M15.5001 4.67413C16.7009 4.67821 17.8512 5.15812 18.6992 6.00884C19.5473 6.85956 20.0239 8.01179 20.025 9.21335V21.7636H10.9637V9.21335C10.9647 8.00979 11.443 6.85581 12.2935 6.00477C13.144 5.15372 14.2973 4.67515 15.5001 4.67413ZM15.5001 1.97681C13.5821 1.97681 11.7426 2.73923 10.3863 4.09634C9.03001 5.45346 8.26807 7.2941 8.26807 9.21335V22.4919C8.26807 23.0141 8.47539 23.515 8.84443 23.8842C9.21347 24.2535 9.71399 24.461 10.2359 24.461H20.7643C21.2842 24.4579 21.7818 24.2491 22.1483 23.8802C22.5149 23.5112 22.7206 23.0121 22.7206 22.4919V9.21335C22.7206 7.2961 21.9603 5.45721 20.6065 4.10042C19.2527 2.74364 17.4162 1.97987 15.5001 1.97681Z" fill="#82C5DC" transform="matrix(1, 0, 0, 1, 0, -2)"/>
</svg>