<svg id="Layer_1" data-name="Layer 1" xmlns="http://www.w3.org/2000/svg" viewBox="0 0 1109.88 331.6"><defs><style>.cls-1{fill:#52c3ee;opacity:0.8;}.cls-2{fill:#31b2ea;}</style></defs><path class="cls-1" d="M134.11,106.25c0,27.43-19.75,44.07-41.5,44.07-23.41,0-41.51-18.65-41.51-44.07,0-28.52,17.37-43.88,41.51-43.88C118.2,62.37,134.11,79.56,134.11,106.25Zm-14.44,0c0-19-9.51-28.7-27.06-29.25-17.92.73-27.06,10.79-27.06,29.25,0,19.75,12.06,31.27,27.06,31.27C109.24,137.52,119.67,123.8,119.67,106.25Z"/><path class="cls-1" d="M155.32,64.38h12.43c.73,8.05,1.28,15.91,2,23.77,4-12.43,13-25.59,29.44-25.59,18.28,0,29.25,10.42,29.25,31.44v54.49H213.82V96.56c0-9-4.2-19.38-18.46-19.38-18.65,0-25.42,17.92-25.42,28.52v42.79H155.32Z"/><path class="cls-2" d="M311.46,71V83.4c-13.17-6-20.66-7-28.53-7-10.6,0-18.83,4.76-18.83,11.15,0,6,4.57,9.15,19.2,11.16,7.31,1.09,14.81,2.56,20.84,5.3,7.86,3.84,13.35,9.87,13.35,20.48,0,17.55-16.64,25.78-34,25.78-17.18,0-26.51-6.22-32.36-11.34V127.1c4.76,4.38,17.74,10.42,29.62,10.42,13.9,0,21.76-4.57,21.94-12.8,0-7.13-4.39-10.61-23.77-12.8-8.77-1.1-15.36-3.11-20.11-6.4-5.67-3.84-8.41-9.51-8.41-16.64,0-17,15-26.32,32-26.32C294.09,62.56,305.61,66.76,311.46,71Z"/><path class="cls-2" d="M354.6,46.1H338V31.48H354.6ZM339.06,64.38h14.63v84.11H339.06Z"/><path class="cls-2" d="M372,159.09c6.58,6,24.13,12.43,42.6,12.43,17.37,0,30.35-5.48,30.35-13.71,0-7.13-14.26-9.69-30.17-9a118.65,118.65,0,0,0-24.5,3.66V144.1c10.06-5.67,15.54-11.34,17-16.27-17.55-1.65-31.27-13-31.27-32.73,0-23.77,21.58-32.54,40.59-32.54,13.35-.55,26.69-1.28,40-1.83V71.15c-8.77,1.46-17.37,3.11-26.14,4.57a22,22,0,0,1,17.18,21.57c0,16.09-12.06,27.61-28.34,30.17a32.59,32.59,0,0,1-7.31,11c21.94-3.29,46.07,3.29,46.07,20.11,0,15.91-19.56,26.7-43.51,26.7-19.38,0-36-7-42.6-14.08Zm61.07-62c0-10.24-7.87-19.93-21.21-19.93-13.53,0-21.21,8.23-21.21,19.93,0,13,9.14,20.3,21.76,20.3C426.64,117.41,433,107.72,433,97.11Z"/><path class="cls-2" d="M552.42,148.49H537.8v-42.6c0-14.08,0-28.71-19-28.71-13.34,0-24.86,11.7-24.86,29.62v41.69H479.29v-117h15.18l-.19,48.63c4.57-10.79,13.9-17,26.88-17.37,21.21-.73,31.26,14.08,31.26,35.47Z"/><path class="cls-2" d="M567.6,77.18V71.33c8.41-2,12.8-4.75,16.27-8.77S589,53.23,589,45.92h11.15V64.38H629v12.8H600.14v41.69c0,12.61,4.94,18.65,14.26,18.65a29.75,29.75,0,0,0,18.47-6.22v10.6c-4.75,5.67-12.25,8.42-20.84,8.42-17.19,0-26.51-11.16-26.51-27.79V77.18Z"/><path d="M93.28,242l-6.45,1.42c-.94-4.64-2.52-7.47-8.41-7.47s-7.78,2.59-7.78,5.66c0,4.17,3.3,5.34,9,6.52C87,249.75,94,251.24,94,260.28c0,7.71-6,12.26-15.8,12.26-9.27,0-14.86-3.61-16.11-11.71l6.36-1.73c1.1,4.33,2.91,7.78,10.07,7.78,4.87,0,8.41-1.49,8.41-5.81,0-4.48-3.3-5.27-8.81-6.37-6.6-1.34-14.54-2.75-14.54-12.19,0-8.17,6.76-12.18,14.94-12.18C88.09,230.33,92,234.89,93.28,242Z"/><path d="M107.35,223.41c-3.22,0-5-1.89-5-5.19s1.81-5.11,5-5.11,5.11,1.81,5.11,5.11S110.57,223.41,107.35,223.41Zm3.46,48.19h-7.15V231.19h7.15Z"/><path d="M149.72,234c1.26-2.9,3.38-5.11,6.37-5.11a10.9,10.9,0,0,1,3.54.63v5.27a25.58,25.58,0,0,0-7.86.86,14,14,0,0,1,3.14,9.12c0,9.12-7.31,14.39-16.59,14.39a24.45,24.45,0,0,1-7.46-.94c-1.1,1-2.52,2.2-2.52,3.85s.86,2.75,5.19,3.06l11.55.79c8.34.55,13.21,2.6,13.21,10.54,0,9.9-10.61,12.89-20.75,12.89-15.1,0-18.16-5.19-18.16-10,0-4.56,3.22-7.7,6.52-9.27V270c-2.75-1.1-4.4-2.91-4.4-5.82,0-3.46,2.52-5.5,5.35-7.7-3.7-2-6-6.13-6-11.32,0-8.89,6.68-14.86,17.14-14.86C143,230.33,147.05,231.35,149.72,234Zm-5.58,38.29-13.36-.79c-3.07,2.05-4.48,3.85-4.48,6.53,0,3.38,2.75,5.66,12.1,5.66q12.51,0,12.5-6.37C150.9,274.43,149.64,272.7,144.14,272.31Zm-6-36.32c-5.58,0-10.3,2.59-10.3,8.8,0,5.27,3.07,8.73,10.22,8.73,5.9,0,10-3.14,10-8.57C148,238.9,144.22,236,138.09,236Z"/><path d="M200.27,271.6h-7.15V245.27c0-5.59-2-8.65-7.55-8.65-4.64,0-9.67,3-11.79,4.87V271.6h-7.15V212.25h7.07v23.5c3.93-3.06,8.57-5.42,14.23-5.42,8.57,0,12.34,4.72,12.34,13.83Z"/><path d="M234.79,269.87a20.06,20.06,0,0,1-9.91,2.67c-7.55,0-11.4-3.45-11.4-11.55V236.93h-6.21v-5.74h6.21V219.48l7.16-1.1v12.81H231.8v5.74H220.64v23.12c0,4.24.94,6.6,5.81,6.6a16.46,16.46,0,0,0,7.08-2Z"/><path d="M287.22,242l-6.44,1.42c-.95-4.64-2.52-7.47-8.41-7.47s-7.79,2.59-7.79,5.66c0,4.17,3.3,5.34,9,6.52,7.39,1.58,14.39,3.07,14.39,12.11,0,7.71-6,12.26-15.8,12.26-9.28,0-14.86-3.61-16.12-11.71l6.37-1.73c1.1,4.33,2.91,7.78,10.06,7.78,4.88,0,8.42-1.49,8.42-5.81,0-4.48-3.31-5.27-8.81-6.37-6.6-1.34-14.54-2.75-14.54-12.19,0-8.17,6.76-12.18,14.93-12.18C282,230.33,286,234.89,287.22,242Z"/><path d="M301.3,223.41c-3.23,0-5-1.89-5-5.19s1.8-5.11,5-5.11,5.11,1.81,5.11,5.11S304.52,223.41,301.3,223.41Zm3.46,48.19H297.6V231.19h7.16Z"/><path d="M350.82,271.6h-7.15V245.27c0-5.59-2-8.65-7.55-8.65-4.63,0-9.67,3-11.79,4.87V271.6h-7.15V231.19h6.29l.39,4.8c3.93-3.15,9-5.66,14.54-5.66,8.65,0,12.42,4.72,12.42,13.83Z"/><path d="M389.43,234c1.25-2.9,3.38-5.11,6.36-5.11a10.9,10.9,0,0,1,3.54.63v5.27a25.58,25.58,0,0,0-7.86.86,14,14,0,0,1,3.14,9.12c0,9.12-7.31,14.39-16.58,14.39a24.47,24.47,0,0,1-7.47-.94c-1.1,1-2.52,2.2-2.52,3.85s.87,2.75,5.19,3.06l11.56.79c8.33.55,13.2,2.6,13.2,10.54,0,9.9-10.61,12.89-20.75,12.89-15.09,0-18.16-5.19-18.16-10,0-4.56,3.22-7.7,6.53-9.27V270c-2.76-1.1-4.41-2.91-4.41-5.82,0-3.46,2.52-5.5,5.35-7.7-3.7-2-6-6.13-6-11.32,0-8.89,6.69-14.86,17.14-14.86C382.66,230.33,386.75,231.35,389.43,234Zm-5.59,38.29-13.36-.79c-3.07,2.05-4.48,3.85-4.48,6.53,0,3.38,2.75,5.66,12.11,5.66q12.5,0,12.49-6.37C390.6,274.43,389.35,272.7,383.84,272.31Zm-6-36.32c-5.58,0-10.3,2.59-10.3,8.8,0,5.27,3.07,8.73,10.22,8.73,5.9,0,10-3.14,10-8.57C387.7,238.9,383.92,236,377.79,236Z"/><path d="M410,223.41c-3.22,0-5-1.89-5-5.19s1.81-5.11,5-5.11,5.11,1.81,5.11,5.11S413.25,223.41,410,223.41Zm3.46,48.19h-7.15V231.19h7.15Z"/><path d="M459.55,271.6H452.4V245.27c0-5.59-2-8.65-7.55-8.65-4.64,0-9.67,3-11.79,4.87V271.6H425.9V231.19h6.29l.4,4.8c3.93-3.15,9-5.66,14.54-5.66,8.65,0,12.42,4.72,12.42,13.83Z"/><path d="M498.15,234c1.26-2.9,3.38-5.11,6.37-5.11a10.9,10.9,0,0,1,3.54.63v5.27a25.58,25.58,0,0,0-7.86.86,14,14,0,0,1,3.14,9.12c0,9.12-7.31,14.39-16.59,14.39a24.56,24.56,0,0,1-7.47-.94c-1.1,1-2.51,2.2-2.51,3.85s.86,2.75,5.19,3.06l11.55.79c8.34.55,13.21,2.6,13.21,10.54,0,9.9-10.61,12.89-20.75,12.89-15.1,0-18.16-5.19-18.16-10,0-4.56,3.22-7.7,6.52-9.27V270c-2.75-1.1-4.4-2.91-4.4-5.82,0-3.46,2.52-5.5,5.35-7.7-3.7-2-6-6.13-6-11.32,0-8.89,6.68-14.86,17.14-14.86C491.39,230.33,495.48,231.35,498.15,234Zm-5.58,38.29-13.36-.79c-3.07,2.05-4.48,3.85-4.48,6.53,0,3.38,2.75,5.66,12.1,5.66q12.5,0,12.5-6.37C499.33,274.43,498.07,272.7,492.57,272.31ZM486.52,236c-5.58,0-10.3,2.59-10.3,8.8,0,5.27,3.06,8.73,10.22,8.73,5.89,0,10-3.14,10-8.57C496.42,238.9,492.65,236,486.52,236Z"/><path d="M514.19,263.27h7.94l-6.6,18.47-5.74-.71Z"/><path d="M579.05,264c0,2.2.39,3.14,2.43,3.14a8.32,8.32,0,0,0,2.44-.47l.32,4.48a12.93,12.93,0,0,1-5.59,1.26c-4,0-5.81-2.2-6.21-4.8-3.14,3.15-7.31,5-13,5-10.22,0-12-6.91-12-10.84,0-10.77,9.52-13.76,20.91-13.76,1.26,0,2.44.08,3.54.16v-3.94c0-5.1-1.41-8.25-8-8.25-5.58,0-7.7,2.2-8.57,6.68l-6.28-1.18c1.25-7.54,6.13-11.08,15.48-11.08,10,0,14.47,3.85,14.47,13.91Zm-7-10.7a32.35,32.35,0,0,0-4.09-.23c-5.58,0-13.05.55-13.05,7.47,0,3.46,1.26,6.44,6.76,6.44a15,15,0,0,0,10.38-4.56Z"/><path d="M589.43,251.79c0-14.07,7.23-21.46,19.34-21.46,9,0,15,4.72,15.56,14.07l-6.84.94c-.63-6-3.38-9-9-9-5.82,0-11.55,3.15-11.55,14.63,0,12,4.87,15.64,11.32,15.64,5.5,0,9-2.67,10.06-8.65l6.29,1.34c-1.34,9.35-8.49,13.28-16.59,13.28C594.62,272.54,589.43,263.9,589.43,251.79Z"/><path d="M631.72,251.79c0-14.07,7.24-21.46,19.34-21.46,9,0,15,4.72,15.57,14.07l-6.84.94c-.63-6-3.38-9-9-9-5.82,0-11.56,3.15-11.56,14.63,0,12,4.88,15.64,11.32,15.64,5.51,0,9-2.67,10.06-8.65l6.29,1.34c-1.33,9.35-8.49,13.28-16.58,13.28C636.91,272.54,631.72,263.9,631.72,251.79Z"/><path d="M674,251.48c0-14.78,8.65-21.15,19-21.15,11.33,0,16,7.47,16,17.45a44,44,0,0,1-.31,5.27h-27.2c.31,10.3,4.87,13.52,11.32,13.52,5.74,0,8.41-2.59,9.51-7.15l6.29,1.41c-1.65,7.86-7.94,11.71-16,11.71C678.34,272.54,674,262.56,674,251.48Zm27.67-4.09c0-7.23-2.75-11.24-9.12-11.24-5.34,0-10.53,3.22-10.92,11.24Z"/><path d="M726.61,271.6h-7.15V212.25h7.15Z"/><path d="M736.52,251.48c0-14.78,8.65-21.15,19-21.15,11.33,0,16,7.47,16,17.45a44,44,0,0,1-.31,5.27h-27.2c.31,10.3,4.87,13.52,11.32,13.52,5.74,0,8.41-2.59,9.51-7.15l6.29,1.41c-1.65,7.86-7.94,11.71-16,11.71C740.84,272.54,736.52,262.56,736.52,251.48Zm27.67-4.09c0-7.23-2.75-11.24-9.12-11.24-5.34,0-10.53,3.22-10.92,11.24Z"/><path d="M803.42,237.8a18.9,18.9,0,0,0-14.31,4.4v29.4H782V231.19h6l.55,5.82c3.53-4.79,7.78-6.68,13.44-6.68a10.92,10.92,0,0,1,1.49.08Z"/><path d="M838.41,264c0,2.2.39,3.14,2.43,3.14a8.32,8.32,0,0,0,2.44-.47l.32,4.48a12.93,12.93,0,0,1-5.59,1.26c-4,0-5.81-2.2-6.21-4.8-3.14,3.15-7.31,5-13,5-10.22,0-12-6.91-12-10.84,0-10.77,9.52-13.76,20.91-13.76,1.26,0,2.44.08,3.54.16v-3.94c0-5.1-1.41-8.25-8-8.25-5.58,0-7.7,2.2-8.57,6.68l-6.28-1.18c1.25-7.54,6.13-11.08,15.48-11.08,10,0,14.47,3.85,14.47,13.91Zm-7-10.7a32.35,32.35,0,0,0-4.09-.23c-5.58,0-13.05.55-13.05,7.47,0,3.46,1.26,6.44,6.76,6.44a15,15,0,0,0,10.38-4.56Z"/><path d="M873.47,269.87a20,20,0,0,1-9.9,2.67c-7.55,0-11.4-3.45-11.4-11.55V236.93H846v-5.74h6.21V219.48l7.15-1.1v12.81h11.17v5.74H859.32v23.12c0,4.24.95,6.6,5.82,6.6a16.38,16.38,0,0,0,7.07-2Z"/><path d="M877.4,251.48c0-14.78,8.65-21.15,19-21.15,11.32,0,16,7.47,16,17.45a42.15,42.15,0,0,1-.32,5.27H885c.32,10.3,4.88,13.52,11.32,13.52,5.74,0,8.41-2.59,9.51-7.15l6.29,1.41c-1.65,7.86-7.94,11.71-16,11.71C881.73,272.54,877.4,262.56,877.4,251.48Zm27.68-4.09c0-7.23-2.76-11.24-9.12-11.24-5.35,0-10.54,3.22-10.93,11.24Z"/><path d="M955.78,271.6h-6l-.55-4.32-.08-.08a18.88,18.88,0,0,1-13.36,5.34c-9.2,0-15.41-5.81-15.41-20.51,0-16,8.1-21.7,17.06-21.7a17.8,17.8,0,0,1,11.32,3.77V212.25h7ZM948.71,240a17.73,17.73,0,0,0-10.3-3.54c-7.78,0-10.61,6.21-10.61,15.57,0,9.82,3.06,14.54,10.14,14.54,4.17,0,8.25-2.44,10.77-4.95Z"/><circle class="cls-2" cx="672.62" cy="75.61" r="9.14"/><circle class="cls-2" cx="672.62" cy="111.9" r="9.14"/><rect class="cls-2" x="722.57" y="28.98" width="38.93" height="128.19"/><rect class="cls-2" x="694.67" y="28.98" width="19.47" height="128.19"/></svg>