<svg width="344" height="103" viewBox="0 0 344 103" fill="none" xmlns="http://www.w3.org/2000/svg">
<path opacity="0.8" d="M41.5665 33.0029C41.5665 41.523 35.4452 46.6917 28.7039 46.6917C21.4481 46.6917 15.8381 40.8987 15.8381 33.0029C15.8381 24.1441 21.2219 19.3731 28.7039 19.3731C36.6353 19.3731 41.5665 24.7125 41.5665 33.0029ZM37.091 33.0029C37.091 27.1012 34.1434 24.0882 28.7039 23.9174C23.1497 24.1441 20.3168 27.2689 20.3168 33.0029C20.3168 39.1375 24.0547 42.7158 28.7039 42.7158C33.8582 42.7158 37.091 38.4542 37.091 33.0029Z" fill="#52C3EE"/>
<path opacity="0.8" d="M48.1404 19.9974H51.993C52.2192 22.4979 52.3897 24.9393 52.6129 27.3807C53.8526 23.5198 56.6421 19.4321 61.7376 19.4321C67.4034 19.4321 70.8034 22.6687 70.8034 29.1978V46.1233H66.2721V29.993C66.2721 27.1975 64.9703 23.9733 60.5505 23.9733C54.7701 23.9733 52.6718 29.5395 52.6718 32.832V46.1233H48.1404V19.9974Z" fill="#52C3EE"/>
<path d="M96.535 22.0537V25.9053C92.4531 24.0416 90.1316 23.731 87.6923 23.731C84.4069 23.731 81.8561 25.2095 81.8561 27.1944C81.8561 29.0581 83.2725 30.0365 87.807 30.6608C90.0727 30.9994 92.3973 31.456 94.2662 32.3071C96.7024 33.4999 98.404 35.3729 98.404 38.6685C98.404 44.1198 93.2465 46.6762 87.8659 46.6762C82.5411 46.6762 79.6493 44.7441 77.8361 43.1538V39.4792C79.3115 40.8397 83.3345 42.7158 87.0166 42.7158C91.3249 42.7158 93.761 41.2963 93.8168 38.7399C93.8168 36.5252 92.4562 35.4443 86.4495 34.7641C83.7313 34.4224 81.6887 33.798 80.2165 32.7761C78.4591 31.5834 77.6099 29.8222 77.6099 27.6075C77.6099 22.327 82.259 19.4321 87.5281 19.4321C91.1513 19.4321 94.7218 20.7367 96.535 22.0537Z" fill="#31B2EA"/>
<path d="M109.906 14.3194H104.761V9.77817H109.906V14.3194ZM105.089 19.9974H109.624V46.1233H105.089V19.9974Z" fill="#31B2EA"/>
<path d="M115.299 49.4158C117.338 51.2795 122.778 53.2767 128.503 53.2767C133.886 53.2767 137.909 51.5745 137.909 49.0182C137.909 46.8035 133.49 46.0083 128.558 46.2226C125.994 46.335 123.449 46.7161 120.965 47.3595V44.7597C124.083 42.9985 125.781 41.2373 126.234 39.7059C120.794 39.1934 116.542 35.6679 116.542 29.5395C116.542 22.1562 123.23 19.4321 129.122 19.4321C133.26 19.2613 137.395 19.0345 141.52 18.8637V22.1003C138.802 22.5538 136.136 23.0663 133.418 23.5198C134.935 23.8611 136.29 24.7114 137.258 25.9299C138.227 27.1484 138.75 28.662 138.743 30.2198C138.743 35.2176 135.005 38.7958 129.959 39.591C129.445 40.873 128.674 42.0358 127.694 43.0078C134.494 41.9859 141.973 44.0297 141.973 49.2543C141.973 54.1961 135.91 57.5477 128.487 57.5477C122.48 57.5477 117.329 55.3734 115.283 53.1742L115.299 49.4158ZM134.227 30.1576C134.227 26.9769 131.788 23.9671 127.653 23.9671C123.46 23.9671 121.079 26.5234 121.079 30.1576C121.079 34.1956 123.912 36.4631 127.824 36.4631C132.234 36.4693 134.205 33.4595 134.205 30.1638L134.227 30.1576Z" fill="#31B2EA"/>
<path d="M171.219 46.1233H166.688V32.891C166.688 28.5176 166.688 23.9733 160.799 23.9733C156.664 23.9733 153.093 27.6075 153.093 33.1737V46.1233H148.553V9.78127H153.258L153.199 24.8865C154.615 21.535 157.507 19.606 161.53 19.4911C168.104 19.2644 171.219 23.8646 171.219 30.5086V46.1233Z" fill="#31B2EA"/>
<path d="M175.924 23.9733V22.1562C178.53 21.535 179.891 20.6808 180.967 19.4321C182.042 18.1834 182.557 16.534 182.557 14.2635H186.013V19.9974H194.954V23.9733H186.009V36.9228C186.009 40.8397 187.541 42.7158 190.429 42.7158C192.5 42.7342 194.516 42.0537 196.154 40.7838V44.0763C194.682 45.8375 192.357 46.6917 189.695 46.6917C184.367 46.6917 181.478 43.2252 181.478 38.0597V23.9733H175.924Z" fill="#31B2EA"/>
<path d="M28.9115 75.1689L26.9124 75.61C26.621 74.1687 26.1313 73.2897 24.3058 73.2897C22.4802 73.2897 21.8944 74.0941 21.8944 75.0477C21.8944 76.343 22.9172 76.7064 24.6839 77.0729C26.9651 77.5761 29.1347 78.039 29.1347 80.8469C29.1347 83.2418 27.275 84.6551 24.2376 84.6551C21.3644 84.6551 19.6318 83.5337 19.2444 81.0178L21.2156 80.4804C21.5566 81.8254 22.1176 82.897 24.3368 82.897C25.8462 82.897 26.9434 82.4342 26.9434 81.0923C26.9434 79.7008 25.9206 79.4554 24.2128 79.1137C22.1672 78.6975 19.7062 78.2595 19.7062 75.3273C19.7062 72.7896 21.8014 71.544 24.3368 71.544C27.3029 71.544 28.5148 72.9604 28.9115 75.1689Z" fill="black"/>
<path d="M33.2724 69.3945C32.2744 69.3945 31.7227 68.8075 31.7227 67.7824C31.7227 66.7574 32.2837 66.1952 33.2724 66.1952C34.2611 66.1952 34.8562 66.7574 34.8562 67.7824C34.8562 68.8075 34.2704 69.3945 33.2724 69.3945ZM34.3448 84.3631H32.1287V71.8111H34.3448V84.3631Z" fill="black"/>
<path d="M46.4048 72.684C46.7953 71.7832 47.4524 71.0967 48.3791 71.0967C48.7531 71.1006 49.1239 71.1667 49.4763 71.2924V72.9293C48.6554 72.8913 47.8335 72.9814 47.0402 73.1965C47.6892 73.9954 48.034 74.9993 48.0134 76.0293C48.0134 78.8621 45.7477 80.499 42.8714 80.499C42.0903 80.5218 41.3103 80.4233 40.5593 80.2071C40.2183 80.5177 39.7782 80.8904 39.7782 81.4029C39.7782 81.9154 40.0447 82.2571 41.3868 82.3534L44.9666 82.5988C47.5516 82.7696 49.061 83.4064 49.061 85.8727C49.061 88.9478 45.7725 89.8765 42.6297 89.8765C37.9495 89.8765 37.0011 88.2644 37.0011 86.7704C37.0011 85.3539 37.9991 84.3786 39.0219 83.8909V83.8661C38.1696 83.5244 37.6582 82.9622 37.6582 82.0583C37.6582 80.9836 38.4392 80.3499 39.3164 79.6666C38.1696 79.0454 37.4567 77.7625 37.4567 76.1504C37.4567 73.3891 39.5271 71.5347 42.7691 71.5347C44.322 71.544 45.5772 71.8608 46.4048 72.684ZM44.6753 84.5774L40.5345 84.332C39.5829 84.9688 39.1459 85.5279 39.1459 86.3603C39.1459 87.4102 39.9983 88.1184 42.8962 88.1184C45.4811 88.1184 46.7726 87.4589 46.7705 86.1398C46.7705 85.2421 46.38 84.7048 44.6753 84.5836V84.5774ZM42.8156 73.2959C41.0862 73.2959 39.6232 74.1004 39.6232 76.0293C39.6232 77.6662 40.5747 78.741 42.7908 78.741C44.6195 78.741 45.8903 77.7656 45.8903 76.079C45.8717 74.206 44.7001 73.3052 42.8001 73.3052L42.8156 73.2959Z" fill="black"/>
<path d="M62.0724 84.3631H59.8563V76.1846C59.8563 74.4483 59.2364 73.4978 57.5162 73.4978C56.0781 73.4978 54.519 74.4296 53.862 75.0105V84.3631H51.6459V65.9281H53.8372V73.2275C55.0552 72.2771 56.4934 71.544 58.2477 71.544C60.9039 71.544 62.0724 73.0101 62.0724 75.8398V84.3631Z" fill="black"/>
<path d="M72.7716 83.8257C71.8368 84.3644 70.7783 84.6502 69.7 84.6551C67.36 84.6551 66.1667 83.5834 66.1667 81.0675V73.5941H64.2419V71.8111H66.1667V68.1738L68.3859 67.8321V71.8111H71.8449V73.5941H68.3859V80.7755C68.3859 82.0925 68.6772 82.8255 70.1867 82.8255C70.9555 82.787 71.7057 82.5747 72.3811 82.2043L72.7716 83.8257Z" fill="black"/>
<path d="M89.0219 75.1689L87.0259 75.6099C86.7314 74.1687 86.2448 73.2896 84.4192 73.2896C82.5937 73.2896 82.0048 74.0941 82.0048 75.0477C82.0048 76.343 83.0276 76.7064 84.7943 77.0729C87.0848 77.5637 89.2544 78.0265 89.2544 80.8345C89.2544 83.2293 87.3947 84.6426 84.3573 84.6426C81.481 84.6426 79.7515 83.5213 79.361 81.0053L81.3353 80.468C81.6762 81.8129 82.2372 82.8845 84.4533 82.8845C85.9659 82.8845 87.0631 82.4217 87.0631 81.0799C87.0631 79.6883 86.0371 79.4429 84.3325 79.1013C82.2868 78.685 79.8259 78.2471 79.8259 75.3149C79.8259 72.7771 81.9211 71.5316 84.4533 71.5316C87.404 71.544 88.6438 72.9604 89.0219 75.1689Z" fill="black"/>
<path d="M93.3859 69.3945C92.3848 69.3945 91.8362 68.8075 91.8362 67.7824C91.8362 66.7574 92.3941 66.1952 93.3859 66.1952C94.3777 66.1952 94.9697 66.7574 94.9697 67.7824C94.9697 68.8075 94.3839 69.3945 93.3859 69.3945ZM94.4583 84.3631H92.2391V71.8111H94.4583V84.3631Z" fill="black"/>
<path d="M108.734 84.3631H106.518V76.1846C106.518 74.4483 105.898 73.4978 104.178 73.4978C102.743 73.4978 101.181 74.4296 100.524 75.0105V84.3631H98.3079V71.8111H100.257L100.378 73.3021C101.596 72.3236 103.168 71.544 104.885 71.544C107.566 71.544 108.734 73.0101 108.734 75.8398V84.3631Z" fill="black"/>
<path d="M120.701 72.684C121.089 71.7832 121.749 71.0967 122.672 71.0967C123.046 71.1006 123.417 71.1667 123.77 71.2924V72.9293C122.949 72.8913 122.127 72.9814 121.334 73.1965C121.982 73.9954 122.327 74.9993 122.307 76.0293C122.307 78.8621 120.041 80.499 117.168 80.499C116.386 80.522 115.605 80.4235 114.853 80.2071C114.512 80.5177 114.072 80.8904 114.072 81.4029C114.072 81.9154 114.341 82.2571 115.68 82.3534L119.263 82.5988C121.845 82.7696 123.354 83.4064 123.354 85.8727C123.354 88.9478 120.066 89.8765 116.923 89.8765C112.246 89.8765 111.294 88.2644 111.294 86.7704C111.294 85.3539 112.292 84.3786 113.318 83.8909V83.8661C112.463 83.5244 111.952 82.9622 111.952 82.0583C111.952 80.9836 112.733 80.3499 113.61 79.6666C112.463 79.0454 111.75 77.7625 111.75 76.1504C111.75 73.3891 113.824 71.5347 117.062 71.5347C118.603 71.544 119.871 71.8608 120.701 72.684ZM118.969 84.5774L114.828 84.332C113.876 84.9688 113.439 85.5279 113.439 86.3603C113.439 87.4102 114.292 88.1184 117.193 88.1184C119.776 88.1184 121.066 87.4589 121.064 86.1398C121.064 85.2421 120.676 84.7048 118.969 84.5836V84.5774ZM117.109 73.2959C115.379 73.2959 113.917 74.1004 113.917 76.0293C113.917 77.6662 114.868 78.741 117.084 78.741C118.913 78.741 120.184 77.7656 120.184 76.079C120.165 74.206 118.993 73.3052 117.093 73.3052L117.109 73.2959Z" fill="black"/>
<path d="M127.077 69.3945C126.079 69.3945 125.527 68.8075 125.527 67.7824C125.527 66.7574 126.088 66.1952 127.077 66.1952C128.066 66.1952 128.661 66.7574 128.661 67.7824C128.661 68.8075 128.084 69.3945 127.077 69.3945ZM128.149 84.3631H125.933V71.8111H128.149V84.3631Z" fill="black"/>
<path d="M142.434 84.3631H140.218V76.1846C140.218 74.4483 139.599 73.4978 137.878 73.4978C136.44 73.4978 134.881 74.4296 134.224 75.0105V84.3631H132.005V71.8111H133.954L134.078 73.3021C135.296 72.3236 136.868 71.544 138.585 71.544C141.266 71.544 142.434 73.0101 142.434 75.8398V84.3631Z" fill="black"/>
<path d="M154.398 72.684C154.789 71.7832 155.446 71.0967 156.373 71.0967C156.747 71.1006 157.117 71.1667 157.47 71.2924V72.9293C156.649 72.8913 155.827 72.9814 155.034 73.1965C155.683 73.9954 156.028 74.9993 156.007 76.0293C156.007 78.8621 153.741 80.499 150.865 80.499C150.083 80.5215 149.302 80.4231 148.55 80.2071C148.209 80.5177 147.772 80.8904 147.772 81.4029C147.772 81.9154 148.038 82.2571 149.38 82.3534L152.96 82.5988C155.545 82.7696 157.055 83.4064 157.055 85.8727C157.055 88.9478 153.766 89.8765 150.623 89.8765C145.943 89.8765 144.995 88.2644 144.995 86.7704C144.995 85.3539 145.993 84.3786 147.015 83.8909V83.8661C146.163 83.5244 145.652 82.9622 145.652 82.0583C145.652 80.9836 146.433 80.3499 147.31 79.6666C146.163 79.0454 145.45 77.7625 145.45 76.1504C145.45 73.3891 147.521 71.5347 150.763 71.5347C152.303 71.544 153.571 71.8608 154.398 72.684ZM152.669 84.5774L148.528 84.332C147.576 84.9688 147.139 85.5279 147.139 86.3603C147.139 87.4102 147.992 88.1184 150.89 88.1184C153.473 88.1184 154.764 87.4589 154.764 86.1398C154.764 85.2421 154.374 84.7048 152.669 84.5836V84.5774ZM150.794 73.3052C149.064 73.3052 147.601 74.1097 147.601 76.0386C147.601 77.6755 148.55 78.7503 150.769 78.7503C152.594 78.7503 153.868 77.7749 153.868 76.0883C153.862 74.206 152.694 73.3052 150.794 73.3052Z" fill="black"/>
<path d="M159.37 81.7757H161.831L159.785 87.5127L158.006 87.2922L159.37 81.7757Z" fill="black"/>
<path d="M179.473 82.0024C179.473 82.6858 179.594 82.9778 180.226 82.9778C180.484 82.9673 180.739 82.9181 180.982 82.8318L181.081 84.2233C180.54 84.482 179.948 84.6157 179.349 84.6147C178.109 84.6147 177.548 83.9313 177.424 83.1237C176.451 84.1022 175.158 84.6768 173.395 84.6768C170.227 84.6768 169.675 82.5305 169.675 81.3097C169.675 77.9644 172.626 77.0357 176.156 77.0357C176.547 77.0357 176.913 77.0605 177.254 77.0854V75.8616C177.254 74.2774 176.817 73.299 174.774 73.299C173.045 73.299 172.387 73.9823 172.118 75.3739L170.171 75.0074C170.559 72.6653 172.071 71.5657 174.969 71.5657C178.069 71.5657 179.454 72.7616 179.454 75.8864L179.473 82.0024ZM177.303 78.6788C176.882 78.6282 176.459 78.6043 176.035 78.6074C174.306 78.6074 171.991 78.7782 171.991 80.9277C171.991 82.0024 172.381 82.9281 174.086 82.9281C175.302 82.8959 176.457 82.3874 177.303 81.5116V78.6788Z" fill="black"/>
<path d="M182.69 78.2098C182.69 73.8394 184.931 71.544 188.684 71.544C191.474 71.544 193.333 73.0101 193.507 75.9144L191.387 76.2063C191.192 74.3426 190.339 73.4108 188.597 73.4108C186.794 73.4108 185.018 74.3892 185.018 77.9551C185.018 81.6825 186.527 82.8131 188.526 82.8131C190.231 82.8131 191.316 81.9838 191.644 80.1263L193.594 80.5425C193.178 83.4468 190.962 84.6675 188.452 84.6675C184.299 84.6551 182.69 81.9713 182.69 78.2098Z" fill="black"/>
<path d="M195.797 78.2098C195.797 73.8394 198.041 71.544 201.792 71.544C204.581 71.544 206.441 73.0101 206.618 75.9144L204.498 76.2063C204.302 74.3426 203.45 73.4108 201.708 73.4108C199.904 73.4108 198.125 74.3892 198.125 77.9551C198.125 81.6825 199.638 82.8131 201.634 82.8131C203.342 82.8131 204.423 81.9838 204.752 80.1263L206.701 80.5425C206.289 83.4468 204.07 84.6675 201.562 84.6675C197.406 84.6551 195.797 81.9713 195.797 78.2098Z" fill="black"/>
<path d="M208.902 78.1135C208.902 73.5226 211.583 71.544 214.791 71.544C218.302 71.544 219.75 73.8643 219.75 76.9642C219.751 77.5113 219.718 78.0579 219.654 78.6012H211.223C211.319 81.8005 212.733 82.8007 214.732 82.8007C216.511 82.8007 217.339 81.9962 217.679 80.5798L219.629 81.0178C219.118 83.4592 217.168 84.6551 214.67 84.6551C210.247 84.6551 208.902 81.5551 208.902 78.1135ZM217.478 76.8431C217.478 74.5973 216.626 73.3518 214.651 73.3518C212.996 73.3518 211.388 74.352 211.267 76.8431H217.478Z" fill="black"/>
<path d="M225.208 84.3631H222.992V65.9281H225.208V84.3631Z" fill="black"/>
<path d="M228.28 78.1135C228.28 73.5226 230.961 71.544 234.168 71.544C237.68 71.544 239.128 73.8643 239.128 76.9642C239.128 77.5113 239.096 78.0579 239.031 78.6012H230.601C230.697 81.8005 232.11 82.8007 234.11 82.8007C235.889 82.8007 236.716 81.9962 237.057 80.5798L239.007 81.0178C238.495 83.4592 236.546 84.6551 234.048 84.6551C229.618 84.6551 228.28 81.5551 228.28 78.1135ZM236.856 76.8431C236.856 74.5973 236.003 73.3518 234.029 73.3518C232.374 73.3518 230.765 74.352 230.644 76.8431H236.856Z" fill="black"/>
<path d="M249.015 73.8643C248.222 73.7774 247.419 73.8538 246.656 74.0888C245.894 74.3238 245.187 74.7125 244.579 75.231V84.3631H242.376V71.8111H244.235L244.406 73.6189C245.5 72.1311 246.817 71.544 248.571 71.544C248.726 71.5417 248.88 71.55 249.033 71.5689L249.015 73.8643Z" fill="black"/>
<path d="M259.86 82.0024C259.86 82.6858 259.981 82.9778 260.613 82.9778C260.871 82.9673 261.126 82.9181 261.369 82.8318L261.468 84.2233C260.927 84.482 260.335 84.6157 259.736 84.6147C258.496 84.6147 257.935 83.9313 257.811 83.1237C256.838 84.1022 255.545 84.6768 253.782 84.6768C250.614 84.6768 250.062 82.5305 250.062 81.3097C250.062 77.9644 253.013 77.0357 256.543 77.0357C256.934 77.0357 257.3 77.0605 257.64 77.0854V75.8616C257.64 74.2774 257.203 73.299 255.161 73.299C253.431 73.299 252.774 73.9823 252.505 75.3739L250.558 75.0074C250.946 72.6653 252.458 71.5657 255.356 71.5657C258.456 71.5657 259.841 72.7616 259.841 75.8864L259.86 82.0024ZM257.69 78.6788C257.269 78.6282 256.846 78.6043 256.422 78.6074C254.693 78.6074 252.378 78.7782 252.378 80.9277C252.378 82.0024 252.768 82.9281 254.473 82.9281C255.689 82.8959 256.844 82.3874 257.69 81.5116V78.6788Z" fill="black"/>
<path d="M270.726 83.8257C269.793 84.3647 268.735 84.6505 267.658 84.6551C265.318 84.6551 264.125 83.5834 264.125 81.0675V73.5941H262.212V71.8111H264.137V68.1738L266.353 67.8321V71.8111H269.815V73.5941H266.341V80.7755C266.341 82.0925 266.635 82.8255 268.144 82.8255C268.912 82.7874 269.662 82.575 270.336 82.2043L270.726 83.8257Z" fill="black"/>
<path d="M271.944 78.1135C271.944 73.5226 274.625 71.544 277.833 71.544C281.342 71.544 282.792 73.8643 282.792 76.9642C282.793 77.5114 282.76 78.0581 282.693 78.6012H274.3C274.399 81.8005 275.812 82.8007 277.808 82.8007C279.588 82.8007 280.415 81.9962 280.756 80.5798L282.706 81.0178C282.194 83.4592 280.245 84.6551 277.746 84.6551C273.286 84.6551 271.944 81.5551 271.944 78.1135ZM280.524 76.8431C280.524 74.5973 279.668 73.3518 277.697 73.3518C276.039 73.3518 274.43 74.352 274.309 76.8431H280.524Z" fill="black"/>
<path d="M296.238 84.3631H294.378L294.208 83.0212L294.183 82.9964C293.075 84.0753 291.587 84.6716 290.042 84.6551C287.19 84.6551 285.266 82.8504 285.266 78.2844C285.266 73.3145 287.776 71.544 290.553 71.544C291.823 71.5182 293.062 71.9318 294.062 72.715V65.9281H296.232L296.238 84.3631ZM294.046 74.5476C293.124 73.8545 292.007 73.4699 290.854 73.4481C288.443 73.4481 287.566 75.377 287.566 78.2844C287.566 81.3346 288.514 82.8007 290.708 82.8007C292.001 82.8007 293.265 82.0428 294.046 81.2631V74.5476Z" fill="black"/>
<path d="M208.474 26.3246C210.039 26.3246 211.307 25.0536 211.307 23.4856C211.307 21.9177 210.039 20.6466 208.474 20.6466C206.91 20.6466 205.641 21.9177 205.641 23.4856C205.641 25.0536 206.91 26.3246 208.474 26.3246Z" fill="#31B2EA"/>
<path d="M208.474 37.5969C210.039 37.5969 211.307 36.3258 211.307 34.7578C211.307 33.1899 210.039 31.9188 208.474 31.9188C206.91 31.9188 205.641 33.1899 205.641 34.7578C205.641 36.3258 206.91 37.5969 208.474 37.5969Z" fill="#31B2EA"/>
<path d="M236.022 9.00163H223.956V48.8194H236.022V9.00163Z" fill="#31B2EA"/>
<path d="M221.343 9.00163H215.308V48.8194H221.343V9.00163Z" fill="#31B2EA"/>
</svg>
