<?xml version="1.0" encoding="utf-8"?>
<svg id="Layer_1" data-name="Layer 1" viewBox="51.1 28.98 904.68 260.37" xmlns="http://www.w3.org/2000/svg">
  <defs>
    <style>.cls-1{fill:#52c3ee;opacity:0.8;}.cls-2{fill:#31b2ea;}</style>
  </defs>
  <path class="cls-1" d="M134.11,106.25c0,27.43-19.75,44.07-41.5,44.07-23.41,0-41.51-18.65-41.51-44.07,0-28.52,17.37-43.88,41.51-43.88C118.2,62.37,134.11,79.56,134.11,106.25Zm-14.44,0c0-19-9.51-28.7-27.06-29.25-17.92.73-27.06,10.79-27.06,29.25,0,19.75,12.06,31.27,27.06,31.27C109.24,137.52,119.67,123.8,119.67,106.25Z"/>
  <path class="cls-1" d="M155.32,64.38h12.43c.73,8.05,1.28,15.91,2,23.77,4-12.43,13-25.59,29.44-25.59,18.28,0,29.25,10.42,29.25,31.44v54.49H213.82V96.56c0-9-4.2-19.38-18.46-19.38-18.65,0-25.42,17.92-25.42,28.52v42.79H155.32Z"/>
  <path class="cls-2" d="M311.46,71V83.4c-13.17-6-20.66-7-28.53-7-10.6,0-18.83,4.76-18.83,11.15,0,6,4.57,9.15,19.2,11.16,7.31,1.09,14.81,2.56,20.84,5.3,7.86,3.84,13.35,9.87,13.35,20.48,0,17.55-16.64,25.78-34,25.78-17.18,0-26.51-6.22-32.36-11.34V127.1c4.76,4.38,17.74,10.42,29.62,10.42,13.9,0,21.76-4.57,21.94-12.8,0-7.13-4.39-10.61-23.77-12.8-8.77-1.1-15.36-3.11-20.11-6.4-5.67-3.84-8.41-9.51-8.41-16.64,0-17,15-26.32,32-26.32C294.09,62.56,305.61,66.76,311.46,71Z"/>
  <path class="cls-2" d="M354.6,46.1H338V31.48H354.6ZM339.06,64.38h14.63v84.11H339.06Z"/>
  <path class="cls-2" d="M372,159.09c6.58,6,24.13,12.43,42.6,12.43,17.37,0,30.35-5.48,30.35-13.71,0-7.13-14.26-9.69-30.17-9a118.65,118.65,0,0,0-24.5,3.66V144.1c10.06-5.67,15.54-11.34,17-16.27-17.55-1.65-31.27-13-31.27-32.73,0-23.77,21.58-32.54,40.59-32.54,13.35-.55,26.69-1.28,40-1.83V71.15c-8.77,1.46-17.37,3.11-26.14,4.57a22,22,0,0,1,17.18,21.57c0,16.09-12.06,27.61-28.34,30.17a32.59,32.59,0,0,1-7.31,11c21.94-3.29,46.07,3.29,46.07,20.11,0,15.91-19.56,26.7-43.51,26.7-19.38,0-36-7-42.6-14.08Zm61.07-62c0-10.24-7.87-19.93-21.21-19.93-13.53,0-21.21,8.23-21.21,19.93,0,13,9.14,20.3,21.76,20.3C426.64,117.41,433,107.72,433,97.11Z"/>
  <path class="cls-2" d="M552.42,148.49H537.8v-42.6c0-14.08,0-28.71-19-28.71-13.34,0-24.86,11.7-24.86,29.62v41.69H479.29v-117h15.18l-.19,48.63c4.57-10.79,13.9-17,26.88-17.37,21.21-.73,31.26,14.08,31.26,35.47Z"/>
  <path class="cls-2" d="M567.6,77.18V71.33c8.41-2,12.8-4.75,16.27-8.77S589,53.23,589,45.92h11.15V64.38H629v12.8H600.14v41.69c0,12.61,4.94,18.65,14.26,18.65a29.75,29.75,0,0,0,18.47-6.22v10.6c-4.75,5.67-12.25,8.42-20.84,8.42-17.19,0-26.51-11.16-26.51-27.79V77.18Z"/>
  <path d="M 82.28 242 L 75.83 243.42 C 74.89 238.78 73.31 235.95 67.42 235.95 C 61.53 235.95 59.64 238.54 59.64 241.61 C 59.64 245.78 62.94 246.95 68.64 248.13 C 76 249.75 83 251.24 83 260.28 C 83 267.99 77 272.54 67.2 272.54 C 57.93 272.54 52.34 268.93 51.09 260.83 L 57.45 259.1 C 58.55 263.43 60.36 266.88 67.52 266.88 C 72.39 266.88 75.93 265.39 75.93 261.07 C 75.93 256.59 72.63 255.8 67.12 254.7 C 60.52 253.36 52.58 251.95 52.58 242.51 C 52.58 234.34 59.34 230.33 67.52 230.33 C 77.09 230.33 81 234.89 82.28 242 Z" style="transform-box: fill-box; transform-origin: 50% 50%;"/>
  <path d="M 96.35 223.41 C 93.13 223.41 91.35 221.52 91.35 218.22 C 91.35 214.92 93.16 213.11 96.35 213.11 C 99.54 213.11 101.46 214.92 101.46 218.22 C 101.46 221.52 99.57 223.41 96.35 223.41 Z M 99.81 271.6 L 92.66 271.6 L 92.66 231.19 L 99.81 231.19 L 99.81 271.6 Z" style="transform-box: fill-box; transform-origin: 50% 50%;"/>
  <path d="M 138.72 234 C 139.98 231.1 142.1 228.89 145.09 228.89 C 146.297 228.903 147.493 229.115 148.63 229.52 L 148.63 234.79 C 145.981 234.668 143.33 234.958 140.77 235.65 C 142.864 238.222 143.977 241.454 143.91 244.77 C 143.91 253.89 136.6 259.16 127.32 259.16 C 124.8 259.233 122.283 258.916 119.86 258.22 C 118.76 259.22 117.34 260.42 117.34 262.07 C 117.34 263.72 118.2 264.82 122.53 265.13 L 134.08 265.92 C 142.42 266.47 147.29 268.52 147.29 276.46 C 147.29 286.36 136.68 289.35 126.54 289.35 C 111.44 289.35 108.38 284.16 108.38 279.35 C 108.38 274.79 111.6 271.65 114.9 270.08 L 114.9 270 C 112.15 268.9 110.5 267.09 110.5 264.18 C 110.5 260.72 113.02 258.68 115.85 256.48 C 112.15 254.48 109.85 250.35 109.85 245.16 C 109.85 236.27 116.53 230.3 126.99 230.3 C 132 230.33 136.05 231.35 138.72 234 Z M 133.14 272.29 L 119.78 271.5 C 116.71 273.55 115.3 275.35 115.3 278.03 C 115.3 281.41 118.05 283.69 127.4 283.69 C 135.74 283.69 139.907 281.567 139.9 277.32 C 139.9 274.43 138.64 272.7 133.14 272.31 L 133.14 272.29 Z M 127.14 235.97 C 121.56 235.97 116.84 238.56 116.84 244.77 C 116.84 250.04 119.91 253.5 127.06 253.5 C 132.96 253.5 137.06 250.36 137.06 244.93 C 137 238.9 133.22 236 127.09 236 L 127.14 235.97 Z" style="transform-box: fill-box; transform-origin: 50% 50%;"/>
  <path d="M 189.27 271.6 L 182.12 271.6 L 182.12 245.27 C 182.12 239.68 180.12 236.62 174.57 236.62 C 169.93 236.62 164.9 239.62 162.78 241.49 L 162.78 271.6 L 155.63 271.6 L 155.63 212.25 L 162.7 212.25 L 162.7 235.75 C 166.63 232.69 171.27 230.33 176.93 230.33 C 185.5 230.33 189.27 235.05 189.27 244.16 L 189.27 271.6 Z" style="transform-box: fill-box; transform-origin: 50% 50%;"/>
  <path d="M 223.79 269.87 C 220.774 271.604 217.359 272.524 213.88 272.54 C 206.33 272.54 202.48 269.09 202.48 260.99 L 202.48 236.93 L 196.27 236.93 L 196.27 231.19 L 202.48 231.19 L 202.48 219.48 L 209.64 218.38 L 209.64 231.19 L 220.8 231.19 L 220.8 236.93 L 209.64 236.93 L 209.64 260.05 C 209.64 264.29 210.58 266.65 215.45 266.65 C 217.931 266.526 220.351 265.842 222.53 264.65 L 223.79 269.87 Z" style="transform-box: fill-box; transform-origin: 50% 50%;"/>
  <path d="M 276.22 242 L 269.78 243.42 C 268.83 238.78 267.26 235.95 261.37 235.95 C 255.48 235.95 253.58 238.54 253.58 241.61 C 253.58 245.78 256.88 246.95 262.58 248.13 C 269.97 249.71 276.97 251.2 276.97 260.24 C 276.97 267.95 270.97 272.5 261.17 272.5 C 251.89 272.5 246.31 268.89 245.05 260.79 L 251.42 259.06 C 252.52 263.39 254.33 266.84 261.48 266.84 C 266.36 266.84 269.9 265.35 269.9 261.03 C 269.9 256.55 266.59 255.76 261.09 254.66 C 254.49 253.32 246.55 251.91 246.55 242.47 C 246.55 234.3 253.31 230.29 261.48 230.29 C 271 230.33 275 234.89 276.22 242 Z" style="transform-box: fill-box; transform-origin: 50% 50%;"/>
  <path d="M 290.3 223.41 C 287.07 223.41 285.3 221.52 285.3 218.22 C 285.3 214.92 287.1 213.11 290.3 213.11 C 293.5 213.11 295.41 214.92 295.41 218.22 C 295.41 221.52 293.52 223.41 290.3 223.41 Z M 293.76 271.6 L 286.6 271.6 L 286.6 231.19 L 293.76 231.19 L 293.76 271.6 Z" style="transform-box: fill-box; transform-origin: 50% 50%;"/>
  <path d="M 339.82 271.6 L 332.67 271.6 L 332.67 245.27 C 332.67 239.68 330.67 236.62 325.12 236.62 C 320.49 236.62 315.45 239.62 313.33 241.49 L 313.33 271.6 L 306.18 271.6 L 306.18 231.19 L 312.47 231.19 L 312.86 235.99 C 316.79 232.84 321.86 230.33 327.4 230.33 C 336.05 230.33 339.82 235.05 339.82 244.16 L 339.82 271.6 Z" style="transform-box: fill-box; transform-origin: 50% 50%;"/>
  <path d="M 378.43 234 C 379.68 231.1 381.81 228.89 384.79 228.89 C 385.997 228.903 387.193 229.115 388.33 229.52 L 388.33 234.79 C 385.681 234.668 383.03 234.958 380.47 235.65 C 382.564 238.222 383.677 241.454 383.61 244.77 C 383.61 253.89 376.3 259.16 367.03 259.16 C 364.506 259.234 361.987 258.917 359.56 258.22 C 358.46 259.22 357.04 260.42 357.04 262.07 C 357.04 263.72 357.91 264.82 362.23 265.13 L 373.79 265.92 C 382.12 266.47 386.99 268.52 386.99 276.46 C 386.99 286.36 376.38 289.35 366.24 289.35 C 351.15 289.35 348.08 284.16 348.08 279.35 C 348.08 274.79 351.3 271.65 354.61 270.08 L 354.61 270 C 351.85 268.9 350.2 267.09 350.2 264.18 C 350.2 260.72 352.72 258.68 355.55 256.48 C 351.85 254.48 349.55 250.35 349.55 245.16 C 349.55 236.27 356.24 230.3 366.69 230.3 C 371.66 230.33 375.75 231.35 378.43 234 Z M 372.84 272.29 L 359.48 271.5 C 356.41 273.55 355 275.35 355 278.03 C 355 281.41 357.75 283.69 367.11 283.69 C 375.443 283.69 379.607 281.567 379.6 277.32 C 379.6 274.43 378.35 272.7 372.84 272.31 L 372.84 272.29 Z M 366.84 235.97 C 361.26 235.97 356.54 238.56 356.54 244.77 C 356.54 250.04 359.61 253.5 366.76 253.5 C 372.66 253.5 376.76 250.36 376.76 244.93 C 376.7 238.9 372.92 236 366.79 236 L 366.84 235.97 Z" style="transform-box: fill-box; transform-origin: 50% 50%;"/>
  <path d="M 399 223.41 C 395.78 223.41 394 221.52 394 218.22 C 394 214.92 395.81 213.11 399 213.11 C 402.19 213.11 404.11 214.92 404.11 218.22 C 404.11 221.52 402.25 223.41 399 223.41 Z M 402.46 271.6 L 395.31 271.6 L 395.31 231.19 L 402.46 231.19 L 402.46 271.6 Z" style="transform-box: fill-box; transform-origin: 50% 50%;"/>
  <path d="M 448.55 271.6 L 441.4 271.6 L 441.4 245.27 C 441.4 239.68 439.4 236.62 433.85 236.62 C 429.21 236.62 424.18 239.62 422.06 241.49 L 422.06 271.6 L 414.9 271.6 L 414.9 231.19 L 421.19 231.19 L 421.59 235.99 C 425.52 232.84 430.59 230.33 436.13 230.33 C 444.78 230.33 448.55 235.05 448.55 244.16 L 448.55 271.6 Z" style="transform-box: fill-box; transform-origin: 50% 50%;"/>
  <path d="M 487.15 234 C 488.41 231.1 490.53 228.89 493.52 228.89 C 494.727 228.903 495.923 229.115 497.06 229.52 L 497.06 234.79 C 494.411 234.668 491.76 234.958 489.2 235.65 C 491.294 238.222 492.407 241.454 492.34 244.77 C 492.34 253.89 485.03 259.16 475.75 259.16 C 473.226 259.232 470.707 258.915 468.28 258.22 C 467.18 259.22 465.77 260.42 465.77 262.07 C 465.77 263.72 466.63 264.82 470.96 265.13 L 482.51 265.92 C 490.85 266.47 495.72 268.52 495.72 276.46 C 495.72 286.36 485.11 289.35 474.97 289.35 C 459.87 289.35 456.81 284.16 456.81 279.35 C 456.81 274.79 460.03 271.65 463.33 270.08 L 463.33 270 C 460.58 268.9 458.93 267.09 458.93 264.18 C 458.93 260.72 461.45 258.68 464.28 256.48 C 460.58 254.48 458.28 250.35 458.28 245.16 C 458.28 236.27 464.96 230.3 475.42 230.3 C 480.39 230.33 484.48 231.35 487.15 234 Z M 481.57 272.29 L 468.21 271.5 C 465.14 273.55 463.73 275.35 463.73 278.03 C 463.73 281.41 466.48 283.69 475.83 283.69 C 484.163 283.69 488.33 281.567 488.33 277.32 C 488.33 274.43 487.07 272.7 481.57 272.31 L 481.57 272.29 Z M 475.52 236 C 469.94 236 465.22 238.59 465.22 244.8 C 465.22 250.07 468.28 253.53 475.44 253.53 C 481.33 253.53 485.44 250.39 485.44 244.96 C 485.42 238.9 481.65 236 475.52 236 Z" style="transform-box: fill-box; transform-origin: 50% 50%;"/>
  <path d="M 503.19 263.27 L 511.13 263.27 L 504.53 281.74 L 498.79 281.03 L 503.19 263.27 Z" style="transform-box: fill-box; transform-origin: 50% 50%;"/>
  <path d="M 568.05 264 C 568.05 266.2 568.44 267.14 570.48 267.14 C 571.312 267.106 572.135 266.948 572.92 266.67 L 573.24 271.15 C 571.494 271.983 569.584 272.413 567.65 272.41 C 563.65 272.41 561.84 270.21 561.44 267.61 C 558.3 270.76 554.13 272.61 548.44 272.61 C 538.22 272.61 536.44 265.7 536.44 261.77 C 536.44 251 545.96 248.01 557.35 248.01 C 558.61 248.01 559.79 248.09 560.89 248.17 L 560.89 244.23 C 560.89 239.13 559.48 235.98 552.89 235.98 C 547.31 235.98 545.19 238.18 544.32 242.66 L 538.04 241.48 C 539.29 233.94 544.17 230.4 553.52 230.4 C 563.52 230.4 567.99 234.25 567.99 244.31 L 568.05 264 Z M 561.05 253.3 C 559.693 253.137 558.327 253.06 556.96 253.07 C 551.38 253.07 543.91 253.62 543.91 260.54 C 543.91 264 545.17 266.98 550.67 266.98 C 554.593 266.876 558.32 265.239 561.05 262.42 L 561.05 253.3 Z" style="transform-box: fill-box; transform-origin: 50% 50%;"/>
  <path d="M 578.43 251.79 C 578.43 237.72 585.66 230.33 597.77 230.33 C 606.77 230.33 612.77 235.05 613.33 244.4 L 606.49 245.34 C 605.86 239.34 603.11 236.34 597.49 236.34 C 591.67 236.34 585.94 239.49 585.94 250.97 C 585.94 262.97 590.81 266.61 597.26 266.61 C 602.76 266.61 606.26 263.94 607.32 257.96 L 613.61 259.3 C 612.27 268.65 605.12 272.58 597.02 272.58 C 583.62 272.54 578.43 263.9 578.43 251.79 Z" style="transform-box: fill-box; transform-origin: 50% 50%;"/>
  <path d="M 620.72 251.79 C 620.72 237.72 627.96 230.33 640.06 230.33 C 649.06 230.33 655.06 235.05 655.63 244.4 L 648.79 245.34 C 648.16 239.34 645.41 236.34 639.79 236.34 C 633.97 236.34 628.23 239.49 628.23 250.97 C 628.23 262.97 633.11 266.61 639.55 266.61 C 645.06 266.61 648.55 263.94 649.61 257.96 L 655.9 259.3 C 654.57 268.65 647.41 272.58 639.32 272.58 C 625.91 272.54 620.72 263.9 620.72 251.79 Z" style="transform-box: fill-box; transform-origin: 50% 50%;"/>
  <path d="M 663 251.48 C 663 236.7 671.65 230.33 682 230.33 C 693.33 230.33 698 237.8 698 247.78 C 698.002 249.541 697.899 251.301 697.69 253.05 L 670.49 253.05 C 670.8 263.35 675.36 266.57 681.81 266.57 C 687.55 266.57 690.22 263.98 691.32 259.42 L 697.61 260.83 C 695.96 268.69 689.67 272.54 681.61 272.54 C 667.34 272.54 663 262.56 663 251.48 Z M 690.67 247.39 C 690.67 240.16 687.92 236.15 681.55 236.15 C 676.21 236.15 671.02 239.37 670.63 247.39 L 690.67 247.39 Z" style="transform-box: fill-box; transform-origin: 50% 50%;"/>
  <path d="M 715.61 271.6 L 708.46 271.6 L 708.46 212.25 L 715.61 212.25 L 715.61 271.6 Z" style="transform-box: fill-box; transform-origin: 50% 50%;"/>
  <path d="M 725.52 251.48 C 725.52 236.7 734.17 230.33 744.52 230.33 C 755.85 230.33 760.52 237.8 760.52 247.78 C 760.522 249.541 760.419 251.301 760.21 253.05 L 733.01 253.05 C 733.32 263.35 737.88 266.57 744.33 266.57 C 750.07 266.57 752.74 263.98 753.84 259.42 L 760.13 260.83 C 758.48 268.69 752.19 272.54 744.13 272.54 C 729.84 272.54 725.52 262.56 725.52 251.48 Z M 753.19 247.39 C 753.19 240.16 750.44 236.15 744.07 236.15 C 738.73 236.15 733.54 239.37 733.15 247.39 L 753.19 247.39 Z" style="transform-box: fill-box; transform-origin: 50% 50%;"/>
  <path d="M 792.42 237.8 C 787.248 237.234 782.071 238.826 778.11 242.2 L 778.11 271.6 L 771 271.6 L 771 231.19 L 777 231.19 L 777.55 237.01 C 781.08 232.22 785.33 230.33 790.99 230.33 C 791.488 230.323 791.986 230.349 792.48 230.41 L 792.42 237.8 Z" style="transform-box: fill-box; transform-origin: 50% 50%;"/>
  <path d="M 827.41 264 C 827.41 266.2 827.8 267.14 829.84 267.14 C 830.672 267.106 831.495 266.948 832.28 266.67 L 832.6 271.15 C 830.854 271.983 828.944 272.413 827.01 272.41 C 823.01 272.41 821.2 270.21 820.8 267.61 C 817.66 270.76 813.49 272.61 807.8 272.61 C 797.58 272.61 795.8 265.7 795.8 261.77 C 795.8 251 805.32 248.01 816.71 248.01 C 817.97 248.01 819.15 248.09 820.25 248.17 L 820.25 244.23 C 820.25 239.13 818.84 235.98 812.25 235.98 C 806.67 235.98 804.55 238.18 803.68 242.66 L 797.4 241.48 C 798.65 233.94 803.53 230.4 812.88 230.4 C 822.88 230.4 827.35 234.25 827.35 244.31 L 827.41 264 Z M 820.41 253.3 C 819.053 253.137 817.687 253.06 816.32 253.07 C 810.74 253.07 803.27 253.62 803.27 260.54 C 803.27 264 804.53 266.98 810.03 266.98 C 813.953 266.876 817.68 265.239 820.41 262.42 L 820.41 253.3 Z" style="transform-box: fill-box; transform-origin: 50% 50%;"/>
  <path d="M 862.47 269.87 C 859.458 271.605 856.046 272.525 852.57 272.54 C 845.02 272.54 841.17 269.09 841.17 260.99 L 841.17 236.93 L 835 236.93 L 835 231.19 L 841.21 231.19 L 841.21 219.48 L 848.36 218.38 L 848.36 231.19 L 859.53 231.19 L 859.53 236.93 L 848.32 236.93 L 848.32 260.05 C 848.32 264.29 849.27 266.65 854.14 266.65 C 856.618 266.527 859.035 265.843 861.21 264.65 L 862.47 269.87 Z" style="transform-box: fill-box; transform-origin: 50% 50%;"/>
  <path d="M 866.4 251.48 C 866.4 236.7 875.05 230.33 885.4 230.33 C 896.72 230.33 901.4 237.8 901.4 247.78 C 901.404 249.542 901.297 251.302 901.08 253.05 L 874 253.05 C 874.32 263.35 878.88 266.57 885.32 266.57 C 891.06 266.57 893.73 263.98 894.83 259.42 L 901.12 260.83 C 899.47 268.69 893.18 272.54 885.12 272.54 C 870.73 272.54 866.4 262.56 866.4 251.48 Z M 894.08 247.39 C 894.08 240.16 891.32 236.15 884.96 236.15 C 879.61 236.15 874.42 239.37 874.03 247.39 L 894.08 247.39 Z" style="transform-box: fill-box; transform-origin: 50% 50%;"/>
  <path d="M 944.78 271.6 L 938.78 271.6 L 938.23 267.28 L 938.15 267.2 C 934.576 270.674 929.774 272.593 924.79 272.54 C 915.59 272.54 909.38 266.73 909.38 252.03 C 909.38 236.03 917.48 230.33 926.44 230.33 C 930.535 230.247 934.533 231.578 937.76 234.1 L 937.76 212.25 L 944.76 212.25 L 944.78 271.6 Z M 937.71 240 C 934.733 237.769 931.13 236.53 927.41 236.46 C 919.63 236.46 916.8 242.67 916.8 252.03 C 916.8 261.85 919.86 266.57 926.94 266.57 C 931.11 266.57 935.19 264.13 937.71 261.62 L 937.71 240 Z" style="transform-box: fill-box; transform-origin: 50% 50%;"/>
  <circle class="cls-2" cx="672.62" cy="75.61" r="9.14"/>
  <circle class="cls-2" cx="672.62" cy="111.9" r="9.14"/>
  <rect class="cls-2" x="722.57" y="28.98" width="38.93" height="128.19"/>
  <rect class="cls-2" x="694.67" y="28.98" width="19.47" height="128.19"/>
</svg>