<svg id="Layer_1" data-name="Layer 1" xmlns="http://www.w3.org/2000/svg" viewBox="0 0 202.85 213.28"><defs><style>.cls-1{fill:#068bb8;}.cls-2{fill:#fff;}</style></defs><path class="cls-1" d="M177,88.06a23.93,23.93,0,0,0-.27,29.16,75.74,75.74,0,0,1-11.9,28,24,24,0,0,0-20.8,20.41A75.7,75.7,0,0,1,115.88,177h0a24,24,0,0,0-29.16-.27,75.74,75.74,0,0,1-28-11.9A24,24,0,0,0,38.33,144,75.6,75.6,0,0,1,27,115.84a24,24,0,0,0,.26-29.16,75.65,75.65,0,0,1,11.9-28,24,24,0,0,0,20.8-20.43A75.6,75.6,0,0,1,88.09,26.92a24,24,0,0,0,29.16.26,75.65,75.65,0,0,1,28,11.9,24,24,0,0,0,20.43,20.8A75.85,75.85,0,0,1,177,88.05S177,88.05,177,88.06Z"/><path class="cls-1" d="M59.92,38.29a24,24,0,0,0-5.23-18.62,70.56,70.56,0,0,0,14.13-4.11A70.29,70.29,0,0,0,79,10.48a24,24,0,0,0,9.11,16.44A75.6,75.6,0,0,0,59.92,38.29Z"/><path class="cls-1" d="M39.12,58.72a75.65,75.65,0,0,0-11.9,28,23.94,23.94,0,0,0-16.86-9.47,70.85,70.85,0,0,0,7.09-12.9,72.42,72.42,0,0,0,3.6-10.77A23.91,23.91,0,0,0,39.12,58.72Z"/><path class="cls-1" d="M38.33,144a24,24,0,0,0-18.62,5.22,70.67,70.67,0,0,0-4.11-14.12A72.4,72.4,0,0,0,10.52,125,24,24,0,0,0,27,115.84,75.6,75.6,0,0,0,38.33,144Z"/><path class="cls-1" d="M86.71,176.71a23.93,23.93,0,0,0-9.46,16.86,70.25,70.25,0,0,0-12.9-7.09,72.42,72.42,0,0,0-10.77-3.6,24,24,0,0,0,5.17-18.07A75.74,75.74,0,0,0,86.71,176.71Z"/><path class="cls-1" d="M149.26,184.22A72.47,72.47,0,0,0,125,193.4,24,24,0,0,0,115.88,177a75.7,75.7,0,0,0,28.17-11.39A24,24,0,0,0,149.26,184.22Z"/><path class="cls-1" d="M193.61,126.68a70.25,70.25,0,0,0-7.09,12.9,72.42,72.42,0,0,0-3.6,10.77,24,24,0,0,0-18.07-5.17,75.74,75.74,0,0,0,11.9-28A23.94,23.94,0,0,0,193.61,126.68Z"/><path class="cls-1" d="M193.43,78.94A23.91,23.91,0,0,0,177,88.05a75.85,75.85,0,0,0-11.38-28.17,24,24,0,0,0,18.62-5.23,70.84,70.84,0,0,0,4.11,14.14A72.21,72.21,0,0,0,193.43,78.94Z"/><path class="cls-1" d="M145.21,39.08a75.65,75.65,0,0,0-28-11.9,23.9,23.9,0,0,0,9.47-16.85,70.23,70.23,0,0,0,12.9,7.08A72.42,72.42,0,0,0,150.39,21,23.92,23.92,0,0,0,145.21,39.08Z"/><ellipse class="cls-2" cx="101.93" cy="99.06" rx="30.52" ry="55.03" transform="translate(-35.88 64.24) rotate(-30)"/></svg>